# xmcd CD database file
#
# Track frame offsets:
#	150
#	21327
#	46135
#	67710
#	87820
#	119015
#	140140
#
# Disc length: 2192 seconds
#
# Revision: 0
# Processed by: cddbd v1.5.1PL0 Copyright (c) Steve Scherf et al.
# Submitted via: CDex 1.51
#
DISCID=5b088e07
DTITLE=Subramaniam - Spanish Wave
DYEAR=1983
DGENRE=Jazz
TTITLE0=Spanish Wave
TTITLE1=Ninth House
TTITLE2=Winter in Austria
TTITLE3=Seventh Heaven
TTITLE4=Chameleon
TTITLE5=You and Me
TTITLE6=Dancing Beauty
EXTD=YEAR: 1983
EXTT0=
EXTT1=
EXTT2=
EXTT3=
EXTT4=
EXTT5=
EXTT6=
PLAYORDER=
